# xmcd
#
# Track frame offsets:
#	150
#	13078
#	23431
#	33530
#	46202
#	59233
#	71906
#	84920
#	97640
#	109839
#	126689
#	139607
#	150348
#	163334
#	177885
#	204570
#	235378
#	248354
#	261008
#	271215
#	284690
#	295221
#
# Disc length: 4085 seconds
#
# Revision: 2
# Processed by: cddbd v1.5.2PL0 Copyright (c) Steve Scherf et al.
# Submitted via: EZCDAudioConverter 7.0.6.1
#
DISCID=3b0ff316
DTITLE=Paul Williams - Someday Man
DYEAR=1970
DGENRE=
TTITLE0=Someday Man
TTITLE1=So Many People
TTITLE2=She's Too Good To Me
TTITLE3=Mornin' I'll Be Movin' On
TTITLE4=Time
TTITLE5=Trust
TTITLE6=To Put Up With You
TTITLE7=Do You Really Have A Heart
TTITLE8=I Know You
TTITLE9=Roan Pony
TTITLE10=Someday Man [Instrumental]
TTITLE11=So Many People [Instrumental]
TTITLE12=Mornin' I'll Be Movin' On [Instrumental]
TTITLE13=To Put Up With You [Instrumental]
TTITLE14=Someday Man [Sessions]
TTITLE15=The Drifter [Sessions]
TTITLE16=Someday Man [Mono 45]
TTITLE17=Mornin' I'll Be Movin' On [Mono 45]
TTITLE18=So Many People [Mono 45]
TTITLE19=To Put Up With You [Mono 45]
TTITLE20=So Many People [Demo]
TTITLE21=I Know You [Demo]
EXTD=
EXTT0=
EXTT1=
EXTT2=
EXTT3=
EXTT4=
EXTT5=
EXTT6=
EXTT7=
EXTT8=
EXTT9=
EXTT10=
EXTT11=
EXTT12=
EXTT13=
EXTT14=
EXTT15=
EXTT16=
EXTT17=
EXTT18=
EXTT19=
EXTT20=
EXTT21=
PLAYORDER=
